<svg xmlns="http://www.w3.org/2000/svg" xmlns:xlink="http://www.w3.org/1999/xlink" viewBox="0 0 12 12.5" version="1.1" x="0px" y="0px"><title>checkmark</title><desc>Created with Sketch.</desc><g stroke="none" stroke-width="1" fill="none" fill-rule="evenodd"><g transform="translate(-185.000000, -1985.000000)" fill="#000000"><g transform="translate(40.000000, 1680.000000)"><path d="M155.83325,305.5945 C155.68825,305.4475 155.44825,305.4475 155.30225,305.5945 L149.70425,311.1815 C149.55825,311.3305 149.31925,311.3305 149.17325,311.1815 L146.72025,308.6765 C146.64825,308.6035 146.55225,308.5665 146.45725,308.5665 C146.36025,308.5655 146.26225,308.6015 146.18825,308.6765 L145.10525,309.6545 C145.03225,309.7285 144.99325,309.8215 144.99325,309.9185 C144.99325,310.0155 145.03225,310.1185 145.10525,310.1915 L149.17325,314.4055 C149.31925,314.5525 149.55825,314.5525 149.70425,314.4055 L156.89725,307.2065 C157.04325,307.0595 157.04325,306.8165 156.89725,306.6695 L155.83325,305.5945 L155.83325,305.5945 Z"/></g></g></g><text x="0" y="25" fill="#000000" font-size="5px" font-weight="bold" font-family="'Helvetica Neue', Helvetica, Arial-Unicode, Arial, Sans-serif">Created by Shovy Rahman</text><text x="0" y="30" fill="#000000" font-size="5px" font-weight="bold" font-family="'Helvetica Neue', Helvetica, Arial-Unicode, Arial, Sans-serif">from the Noun Project</text></svg>