<svg xmlns="http://www.w3.org/2000/svg" viewBox="0 0 477.31 61.99"><defs><style>.cls-1{fill:#33006f;}</style></defs><title>Asset 3</title><g id="Layer_2" data-name="Layer 2"><g id="bothell_stacked_large" data-name="bothell stacked large"><path class="cls-1" d="M113.8,58.73V2.36h36.92v9.73H125.6V27.21h22.93v9.33H125.6V58.73Z"/><path class="cls-1" d="M153.6,37.75C153.6,24.2,161.8,16,174.34,16s20.74,8.2,20.74,21.79c0,13.79-8.08,21.88-20.74,21.88S153.6,51.5,153.6,37.75Zm29.88,0c0-8.32-3.59-13.12-9.14-13.12s-9.18,4.8-9.18,13.12,3.55,13.13,9.18,13.13S183.48,46.19,183.48,37.79Z"/><path class="cls-1" d="M199,37.75C199,24.2,207.22,16,219.76,16s20.74,8.2,20.74,21.79c0,13.79-8.08,21.88-20.74,21.88S199,51.5,199,37.75Zm29.88,0c0-8.32-3.59-13.12-9.14-13.12s-9.18,4.8-9.18,13.12,3.56,13.13,9.18,13.13S228.9,46.19,228.9,37.79Z"/><path class="cls-1" d="M244.44,37.71c0-13.28,6.64-21.52,17.15-21.52,6.05,0,10.74,3.2,12.77,7.85h.23V2.36H286V58.73H274.75V51.54h-.19c-2,4.61-6.88,7.85-13.05,7.85C251,59.39,244.44,51.11,244.44,37.71Zm11.68.08c0,7.7,3.51,12.42,9.26,12.42s9.29-4.76,9.29-12.42S271,25.33,265.38,25.33,256.12,30.14,256.12,37.79Z"/><path class="cls-1" d="M342.23,45.06h-19.8l-4.3,13.67H306L325.59,2.36h13.87l19.61,56.37H346.53ZM325,36.23h14.72l-7.22-23.09h-.28Z"/><path class="cls-1" d="M363.71,2.36h11.4V58.73h-11.4Z"/><path class="cls-1" d="M420.61,45.92c-1.25,8.2-8.75,13.71-19.1,13.71-12.89,0-20.62-8.24-20.62-21.64s7.81-22,20.19-22c12.19,0,19.88,8.24,19.88,21v3.48H392.1v.7c0,6,3.79,10.08,9.61,10.08,4.18,0,7.38-2.07,8.43-5.27Zm-28.4-12.5H410c-.24-5.35-3.71-9-8.79-9S392.6,28.18,392.21,33.42Z"/><path class="cls-1" d="M426.42,16.85h11v7.54h.23c1.49-5.31,5-8.2,10-8.2a11.89,11.89,0,0,1,3.25.43v10a11.77,11.77,0,0,0-4.14-.66c-5.63,0-8.91,3.43-8.91,9.33v23.4H426.42Z"/><path class="cls-1" d="M469.58,7.21v9.64h7.73v8.6h-7.73v20c0,3.2,1.56,4.72,4.92,4.72a18,18,0,0,0,2.77-.19v8.4a26.4,26.4,0,0,1-5.43.47c-9.84,0-13.67-3.29-13.67-11.45v-22h-5.9v-8.6h5.9V7.21Z"/><path class="cls-1" d="M67.66,0V11.18h7.86L66.74,43.83S56,.61,55.85,0H44.5L32.72,43.83,24.64,11.18h8.18V0H0V11.18H7.27L20,62H37.59L46,30l8,32H71.61L85,11.18h7.21V0Z"/></g></g></svg>