<svg xmlns="http://www.w3.org/2000/svg" viewBox="0 0 539.87 72.62"><defs><style>.cls-1{fill:#33006f;}</style></defs><title>Asset 1</title><g id="Layer_2" data-name="Layer 2"><g id="bothell_stacked_large" data-name="bothell stacked large"><path class="cls-1" d="M79.26,0V13.1h9.2L78.19,51.35S65.61.71,65.43,0H52.13L38.33,51.35,28.87,13.1h9.58V0H0V13.1H8.52L23.4,72.62H44c.18-.7,9.85-37.45,9.85-37.45l9.37,37.45H83.89c.19-.7,15.66-59.52,15.66-59.52H108V0Z"/><path class="cls-1" d="M136.05,66.82v-62h40.61v10.7H149V32.14h25.22V42.41H149V66.82Z"/><path class="cls-1" d="M180.27,43.74c0-14.91,9-24,22.82-24s22.81,9,22.81,24c0,15.17-8.89,24.07-22.81,24.07S180.27,58.87,180.27,43.74Zm32.87,0c0-9.16-3.95-14.44-10-14.44S193,34.63,193,43.79s3.91,14.43,10.1,14.43S213.14,53,213.14,43.79Z"/><path class="cls-1" d="M230.67,43.74c0-14.91,9-24,22.82-24s22.81,9,22.81,24c0,15.17-8.89,24.07-22.81,24.07S230.67,58.87,230.67,43.74Zm32.87,0c0-9.16-4-14.44-10.05-14.44s-10.1,5.28-10.1,14.44,3.91,14.43,10.1,14.43S263.54,53,263.54,43.79Z"/><path class="cls-1" d="M281.07,43.7c0-14.61,7.31-23.68,18.87-23.68,6.66,0,11.81,3.53,14.05,8.64h.26V4.81h12.54v62H314.42V58.91h-.22c-2.23,5.07-7.56,8.64-14.35,8.64C288.34,67.55,281.07,58.44,281.07,43.7Zm12.85.09c0,8.46,3.87,13.66,10.18,13.66s10.23-5.24,10.23-13.66-4-13.71-10.23-13.71S293.92,35.36,293.92,43.79Z"/><path class="cls-1" d="M389.53,51.78H367.74l-4.73,15H349.69l21.53-62h15.26l21.57,62h-13.8Zm-19-9.71h16.2l-8-25.4h-.3Z"/><path class="cls-1" d="M413.59,4.81h12.55v62H413.59Z"/><path class="cls-1" d="M476.62,52.72c-1.37,9-9.62,15.09-21,15.09-14.18,0-22.68-9.07-22.68-23.81s8.59-24.23,22.21-24.23c13.41,0,21.87,9.06,21.87,23.07v3.83H445.26v.77c0,6.57,4.17,11.08,10.57,11.08,4.6,0,8.12-2.27,9.28-5.8ZM445.39,39h19.55c-.26-5.88-4.09-9.92-9.67-9.92S445.82,33.22,445.39,39Z"/><path class="cls-1" d="M483.46,20.76h12.11v8.29h.26c1.63-5.85,5.54-9,11-9a12.57,12.57,0,0,1,3.56.48v11a12.89,12.89,0,0,0-4.55-.73c-6.19,0-9.8,3.78-9.8,10.27V66.82H483.46Z"/><path class="cls-1" d="M531.37,10.14V20.76h8.5v9.45h-8.5v22c0,3.52,1.72,5.2,5.41,5.2a21.55,21.55,0,0,0,3.05-.21v9.23a28.86,28.86,0,0,1-6,.52c-10.83,0-15-3.61-15-12.59V30.21h-6.49V20.76h6.49V10.14Z"/></g></g></svg>