<svg width="1640" height="251" viewBox="0 0 1640 251" fill="none" xmlns="http://www.w3.org/2000/svg">
<path d="M52.1191 247V149.93H152.437V109.085H52.1191V42.9473H162.007V0.393555H0.507812V247H52.1191Z" fill="#4B2E84"/>
<path d="M270.78 250.931C326.151 250.931 361.527 215.555 361.527 155.228C361.527 95.7549 325.639 59.8662 270.78 59.8662C215.922 59.8662 180.033 95.9258 180.033 155.228C180.033 215.384 215.409 250.931 270.78 250.931ZM270.78 212.82C246.171 212.82 230.619 192.142 230.619 155.398C230.619 118.997 246.513 97.9766 270.78 97.9766C295.048 97.9766 310.771 118.997 310.771 155.398C310.771 192.142 295.219 212.82 270.78 212.82Z" fill="#4B2E84"/>
<path d="M474.915 250.931C530.286 250.931 565.662 215.555 565.662 155.228C565.662 95.7549 529.773 59.8662 474.915 59.8662C420.057 59.8662 384.168 95.9258 384.168 155.228C384.168 215.384 419.544 250.931 474.915 250.931ZM474.915 212.82C450.306 212.82 434.754 192.142 434.754 155.398C434.754 118.997 450.647 97.9766 474.915 97.9766C499.183 97.9766 514.905 118.997 514.905 155.398C514.905 192.142 499.354 212.82 474.915 212.82Z" fill="#4B2E84"/>
<path d="M662.985 249.905C689.987 249.905 711.179 235.721 720.065 215.555H720.92V247H770.139V0.393555H720.236V95.2422H719.211C710.324 74.9053 689.816 60.8916 663.327 60.8916C617.355 60.8916 588.303 96.9512 588.303 155.057C588.303 213.675 617.185 249.905 662.985 249.905ZM679.904 100.882C704.685 100.882 720.578 122.073 720.578 155.398C720.578 188.895 704.685 209.744 679.904 209.744C654.782 209.744 639.401 189.065 639.401 155.398C639.401 121.902 654.782 100.882 679.904 100.882Z" fill="#4B2E84"/>
<path d="M1045.62 247H1100.48L1014.69 0.393555H954.019L868.398 247H921.377L940.176 187.186H1026.82L1045.62 247ZM982.9 47.5615H984.097L1015.71 148.562H951.284L982.9 47.5615Z" fill="#4B2E84"/>
<path d="M1126.2 247H1176.1V0.393555H1126.2V247Z" fill="#4B2E84"/>
<path d="M1334.6 190.945C1329.99 204.959 1315.97 214.017 1297.69 214.017C1272.22 214.017 1255.65 196.072 1255.65 169.925V166.849H1381.94V151.639C1381.94 95.9258 1348.27 59.8662 1294.95 59.8662C1240.78 59.8662 1206.6 97.8057 1206.6 156.253C1206.6 214.871 1240.44 250.931 1296.83 250.931C1342.12 250.931 1374.93 226.834 1380.4 190.945H1334.6ZM1295.47 96.7803C1317.68 96.7803 1332.89 112.845 1333.92 136.258H1256.16C1257.87 113.357 1273.59 96.7803 1295.47 96.7803Z" fill="#4B2E84"/>
<path d="M1411.25 247H1461.15V144.632C1461.15 118.826 1475.5 103.787 1500.11 103.787C1507.29 103.787 1514.13 104.983 1518.23 106.692V62.7715C1514.81 61.7461 1509.86 60.8916 1504.04 60.8916C1482.51 60.8916 1466.96 73.5381 1460.47 96.7803H1459.44V63.7969H1411.25V247Z" fill="#4B2E84"/>
<path d="M1555.57 21.585V63.7969H1529.76V101.395H1555.57V197.61C1555.57 233.328 1572.32 247.684 1615.38 247.684C1625.46 247.684 1634.01 246.829 1639.14 245.633V208.89C1636.06 209.402 1631.45 209.744 1627 209.744C1612.31 209.744 1605.47 203.079 1605.47 189.065V101.395H1639.31V63.7969H1605.47V21.585H1555.57Z" fill="#4B2E84"/>
</svg>
