<svg xmlns="http://www.w3.org/2000/svg" viewBox="0 0 668.95 82.24"><defs><style>.cls-1{fill:#33006f;}</style></defs><title>Asset 2</title><g id="Layer_2" data-name="Layer 2"><g id="bothell_stacked_large" data-name="bothell stacked large"><path class="cls-1" d="M179.8,65.18V23.33h-.35L162.61,65.18h-8.16L137.6,23.33h-.34V65.18H125.7v-62h15L158.36,47.7h.34L176.32,3.18h15v62Z"/><path class="cls-1" d="M198.92,42.11c0-14.91,9-24,22.82-24s22.81,9,22.81,24c0,15.17-8.89,24.06-22.81,24.06S198.92,57.23,198.92,42.11Zm32.87,0c0-9.15-3.95-14.44-10-14.44s-10.1,5.29-10.1,14.44,3.91,14.44,10.1,14.44S231.79,51.39,231.79,42.15Z"/><path class="cls-1" d="M263.93,57.28h-.26v7.9H251.3v-62h12.54V27.11h.26c2.54-5.45,7.65-8.72,14.23-8.72,11.6,0,18.73,8.9,18.73,23.76S290,65.91,278.37,65.91C271.62,65.91,266.47,62.65,263.93,57.28Zm-.13-15.13c0,8.34,4.13,13.67,10.23,13.67,6.27,0,10.18-5.25,10.18-13.67s-3.95-13.7-10.18-13.7C268,28.45,263.8,33.9,263.8,42.15Z"/><path class="cls-1" d="M303.46,6.45A6.53,6.53,0,1,1,310,12.89,6.46,6.46,0,0,1,303.46,6.45Zm.3,12.67h12.55V65.18H303.76Z"/><path class="cls-1" d="M325,3.18h12.54v62H325Z"/><path class="cls-1" d="M388,51.09c-1.37,9-9.62,15.08-21,15.08-14.18,0-22.69-9.06-22.69-23.8s8.6-24.24,22.22-24.24c13.4,0,21.87,9.07,21.87,23.08V45H356.61v.77c0,6.58,4.17,11.09,10.57,11.09,4.6,0,8.13-2.28,9.29-5.8ZM356.74,37.34h19.55c-.25-5.89-4.08-9.93-9.66-9.93S357.17,31.58,356.74,37.34Z"/><path class="cls-1" d="M438.51,3.18c12.72,0,21.49,8.46,21.49,21.23s-9.07,21.22-22.13,21.22h-11.6V65.18h-13v-62ZM426.27,35.49H435c7.44,0,11.78-4,11.78-11s-4.3-11-11.73-11h-8.81Z"/><path class="cls-1" d="M461.8,52c0-8.38,6.45-13.24,17.92-13.92l11.6-.69V34.29c0-4.3-3-6.79-7.73-6.79s-7.65,2.32-8.25,5.71H463.86c.48-8.93,8.08-15.08,20.29-15.08,11.81,0,19.5,6.1,19.5,15.39V65.18H491.54v-7h-.26c-2.58,4.9-8.29,7.77-14,7.77C468.46,65.91,461.8,60.24,461.8,52Zm29.52-3.65V45l-9.71.6c-4.68.34-7.35,2.45-7.35,5.71,0,3.44,2.84,5.59,7.09,5.59C486.81,56.85,491.32,53.28,491.32,48.3Z"/><path class="cls-1" d="M511.73,19.12h12.12v8.21h.26c2.45-5.72,7.3-9.07,14.39-9.07,10.23,0,16,6.45,16,17.23V65.18H541.94V38.11c0-6-2.84-9.45-8.47-9.45s-9.19,4.13-9.19,10.1V65.18H511.73Z"/><path class="cls-1" d="M578.33,8.51V19.12h8.51v9.45h-8.51v22c0,3.52,1.72,5.2,5.42,5.2a20.22,20.22,0,0,0,3-.22v9.24a28.86,28.86,0,0,1-6,.52c-10.83,0-15-3.61-15-12.59V28.57H559.3V19.12h6.49V8.51Z"/><path class="cls-1" d="M593.72,19.12h12.11v8.29h.26c1.63-5.84,5.54-9,11-9a13.05,13.05,0,0,1,3.56.47V29.91a12.89,12.89,0,0,0-4.55-.73c-6.19,0-9.8,3.78-9.8,10.27V65.18H593.72Z"/><path class="cls-1" d="M626.89,82.11V72.4c.43.09,2.7.13,3.18.13,4.55,0,6.83-1.46,7.69-5.11,0-.22.47-2,.43-2.24l-16-46.06h13.75l9.8,36H646l9.75-36H669L653.1,66.17c-3.91,11.82-9.71,16.07-21.44,16.07C631.18,82.24,627.32,82.2,626.89,82.11Z"/><path class="cls-1" d="M74.46.44v12.3H83.1L73.45,48.67S61.63,1.11,61.47.44H49c-.18.65-13,48.24-13,48.24L27.12,12.74h9V.44H0v12.3H8S21.82,68,22,68.66H41.37c.17-.66,9.26-35.19,9.26-35.19S59.26,68,59.42,68.66H78.81C79,68,93.52,12.74,93.52,12.74h7.94V.44Z"/></g></g></svg>